# xmcd
#
# Track frame offsets:
#	150
#	15917
#	29587
#	45187
#	58675
#	73642
#	84330
#	93112
#	102310
#	117600
#	131450
#	142400
#	149062
#	158125
#	171037
#	186362
#
# Disc length: 2795 seconds
#
# Revision: 1
# Processed by: cddbd v1.5.1PL0 Copyright (c) Steve Scherf et al.
# Submitted via: CDex 1.50Beta5
#
DISCID=df0ae910
DTITLE=小林武史 - 終わらない夏
DYEAR=1900
DGENRE=Soundtrack
TTITLE0=終わらない夏 〜Theme〜
TTITLE1=アジサイ
TTITLE2=水の情景 〜water〜
TTITLE3=終わらない夏 #2
TTITLE4=プラトーの風 〜wind through a plateau〜
TTITLE5=Hello,Again 〜昔からある場所〜 (piano version)
TTITLE6=Run Around
TTITLE7=(It's not) Autumn Rain at dusk
TTITLE8=7/8
TTITLE9=終わらない夏 #3
TTITLE10=Heart of nylon
TTITLE11=Walk Around
TTITLE12=CHEAPER
TTITLE13=(It's not) Autumn Rain at dawn
TTITLE14=終わらない夏 #4
TTITLE15=Hello,Again 〜昔からある場所〜
EXTD=
EXTT0=
EXTT1=
EXTT2=
EXTT3=
EXTT4=
EXTT5=
EXTT6=
EXTT7=
EXTT8=
EXTT9=
EXTT10=
EXTT11=
EXTT12=
EXTT13=
EXTT14=
EXTT15=
PLAYORDER=
